<?xml version="1.0" encoding="iso-8859-1"?>
<!-- Generator: Adobe Illustrator 18.1.1, SVG Export Plug-In . SVG Version: 6.00 Build 0)  -->
<svg version="1.1" id="Capa_1" xmlns="http://www.w3.org/2000/svg" xmlns:xlink="http://www.w3.org/1999/xlink" x="0px" y="0px"
	 viewBox="0 0 428.1 428.1" style="enable-background:new 0 0 428.1 428.1;" xml:space="preserve">
<g>
	<path style="fill:#010002;" d="M214.054,153.053c-33.636,0-60.997,27.361-60.997,60.997s27.361,60.997,60.997,60.997
		s60.997-27.361,60.997-60.997S247.69,153.053,214.054,153.053z M214.054,258.789c-24.67,0-44.74-20.069-44.74-44.74
		s20.069-44.74,44.74-44.74s44.74,20.069,44.74,44.74S238.724,258.789,214.054,258.789z"/>
	<path style="fill:#010002;" d="M214.054,102.965c-4.495,0-8.129,3.633-8.129,8.129c0,4.495,3.633,8.129,8.129,8.129
		c52.291,0,94.828,42.537,94.828,94.828c0,4.495,3.633,8.129,8.129,8.129s8.129-3.633,8.129-8.129
		C325.139,152.801,275.303,102.965,214.054,102.965z"/>
	<path style="fill:#010002;" d="M214.054,308.878c-52.291,0-94.828-42.537-94.828-94.828c0-4.495-3.633-8.129-8.129-8.129
		c-4.495,0-8.129,3.633-8.129,8.129c0,61.249,49.836,111.085,111.085,111.085c4.495,0,8.129-3.633,8.129-8.129
		C222.182,312.511,218.549,308.878,214.054,308.878z"/>
	<path style="fill:#010002;" d="M419.975,168.351h-20.443c-5.966,0-15.891-8.836-22.183-23.605
		c-6.275-14.778-5.731-28.068-1.577-32.368l14.201-14.713c3.113-3.227,3.024-8.372-0.203-11.494L335.73,33.986
		c-1.553-1.504-3.747-2.365-5.788-2.276c-2.162,0.041-4.211,0.927-5.706,2.487l-14.184,14.696c-4.65,4.82-18.322,5.178-29.531,0.658
		c-11.648-4.69-20.768-13.9-20.768-20.972V8.129c0-4.495-3.633-8.129-8.129-8.129h-75.141c-4.495,0-8.129,3.633-8.129,8.129v20.443
		c0,7.056-9.12,16.306-20.752,21.053c-11.144,4.528-24.808,4.17-29.482-0.691l-14.233-14.737c-1.504-1.553-3.56-2.447-5.706-2.487
		c-1.975,0.228-4.235,0.788-5.788,2.276L38.355,86.171c-3.235,3.121-3.316,8.267-0.203,11.494l14.201,14.713
		c4.154,4.3,4.69,17.59-1.585,32.368c-6.292,14.778-16.217,23.614-22.183,23.614H8.133c-4.495,0-8.129,3.633-8.129,8.129v75.141
		c0,4.495,3.633,8.129,8.129,8.129h20.443c5.958,0,15.891,8.844,22.183,23.63c6.283,14.786,5.739,28.06,1.593,32.352l-14.201,14.696
		c-1.504,1.553-2.325,3.633-2.284,5.796c0.041,2.154,0.927,4.211,2.487,5.706l54.039,52.202c1.544,1.496,3.666,2.113,5.788,2.276
		c2.162-0.041,4.211-0.927,5.706-2.487l14.184-14.696c4.641-4.82,18.314-5.186,29.515-0.675c11.648,4.69,20.769,13.9,20.769,20.972
		v20.443c0,4.495,3.633,8.129,8.129,8.129h75.141c4.495,0,8.129-3.633,8.129-8.129v-20.443c0-7.056,9.104-16.306,20.744-21.045
		c11.136-4.544,24.8-4.162,29.499,0.691l14.249,14.745c3.113,3.235,8.275,3.333,11.486,0.203l54.039-52.202
		c3.227-3.121,3.316-8.267,0.203-11.494l-14.209-14.713c-4.162-4.3-4.698-17.582,1.577-32.36
		c6.292-14.778,16.216-23.613,22.183-23.613h20.443c4.495,0,8.129-3.633,8.129-8.129v-75.141
		C428.104,171.984,424.47,168.351,419.975,168.351z M411.846,243.491h-12.315c-16.891,0-30.572,18.054-37.139,33.506
		c-6.584,15.461-10.079,37.839,1.683,50.023l8.559,8.86l-42.35,40.903l-8.6-8.901c-5.601-5.804-14.42-8.99-24.833-8.99
		c-7.438,0-15.225,1.569-22.5,4.544c-14.867,6.056-30.864,19.931-30.864,36.099v12.315h-58.883v-12.315
		c0-16.208-16.046-30.043-30.945-36.058c-7.299-2.934-15.07-4.495-22.5-4.495c-10.413,0-19.216,3.186-24.8,8.958l-8.535,8.844
		l-42.35-40.903l8.559-8.852c11.746-12.16,8.242-34.538,1.666-50.007c-6.576-15.461-20.248-33.53-37.139-33.53H16.261v-58.883
		h12.315c16.891,0,30.572-18.054,37.139-33.506c6.576-15.461,10.079-37.839-1.666-50.015l-8.559-8.868l42.35-40.887l8.584,8.893
		c5.592,5.796,14.404,8.99,24.817,8.99c7.438,0,15.217-1.561,22.508-4.536c14.867-6.064,30.872-19.948,30.872-36.099V16.257h58.883
		v12.315c0,16.208,16.046,30.051,30.954,36.058c7.308,2.943,15.095,4.495,22.524,4.495c10.396,0,19.2-3.178,24.776-8.95l8.535-8.844
		l42.35,40.887l-8.559,8.868c-11.746,12.177-8.251,34.555-1.674,50.015c6.576,15.452,20.24,33.506,37.131,33.506h12.315v58.883
		H411.846z"/>
</g>
<g>
</g>
<g>
</g>
<g>
</g>
<g>
</g>
<g>
</g>
<g>
</g>
<g>
</g>
<g>
</g>
<g>
</g>
<g>
</g>
<g>
</g>
<g>
</g>
<g>
</g>
<g>
</g>
<g>
</g>
</svg>
