<?xml version="1.0"?>
<svg xmlns="http://www.w3.org/2000/svg" viewBox="0 0 512 512" width="512" height="512"><g id="_27-_urgent_support" data-name="27- urgent support"><g id="linear_color" data-name="linear color"><path d="M460,251V189.03a12,12,0,0,0-10.529-11.909l-34.58-4.272-11.739-28.342,21.431-27.477a12,12,0,0,0-.978-15.865L362.835,40.4a12,12,0,0,0-15.865-.977L319.493,60.849,291.152,49.108l-4.272-34.58A12,12,0,0,0,274.97,4H189.03a12,12,0,0,0-11.91,10.528l-4.272,34.58L144.507,60.849,117.03,39.418a12,12,0,0,0-15.865.977L40.4,101.165a12,12,0,0,0-.978,15.865l21.431,27.477L49.109,172.849l-34.58,4.272A12,12,0,0,0,4,189.03v85.94a12,12,0,0,0,10.529,11.909l34.58,4.272,11.739,28.342L39.417,346.97a12,12,0,0,0,.978,15.865l60.77,60.77a12,12,0,0,0,15.865.977l27.477-21.431,28.341,11.741,4.272,34.58A12,12,0,0,0,189.03,460H250c.321,0,.637-.023.952-.048A147.635,147.635,0,0,0,360,508c81.607,0,148-66.393,148-148A147.635,147.635,0,0,0,460,251ZM199.638,436l-3.828-30.991a12.005,12.005,0,0,0-7.318-9.615L147.232,378.3a12,12,0,0,0-11.972,1.625l-24.626,19.206L64.866,353.365,84.072,328.74A12,12,0,0,0,85.7,316.769l-17.09-41.261a12,12,0,0,0-9.615-7.318L28,264.361V199.639l30.991-3.829a12,12,0,0,0,9.615-7.318L85.7,147.231a12,12,0,0,0-1.624-11.971L64.866,110.635l45.768-45.769L135.26,84.072A12,12,0,0,0,147.232,85.7l41.26-17.091a12.005,12.005,0,0,0,7.318-9.615L199.638,28h64.724l3.828,30.991a12.005,12.005,0,0,0,7.318,9.615L316.768,85.7a12,12,0,0,0,11.972-1.625l24.626-19.206,45.768,45.769L379.928,135.26a12,12,0,0,0-1.624,11.971l17.09,41.261a12,12,0,0,0,9.615,7.318L436,199.639v33.412A147.1,147.1,0,0,0,360,212a148.887,148.887,0,0,0-15.8.845A113.824,113.824,0,1,0,212.845,344.2,148.939,148.939,0,0,0,212,360a147.093,147.093,0,0,0,21.051,76ZM244,239.417l25.367-12.684A12,12,0,0,0,276,216V192a12,12,0,0,0-24,0v16.584l-20,10-20-10V192a12,12,0,0,0-24,0v24a12,12,0,0,0,6.633,10.733L220,239.417v72.568q-1.461,4.246-2.664,8.606A89.822,89.822,0,1,1,320.594,217.335,148.4,148.4,0,0,0,244,268.194ZM360,484A124,124,0,1,1,484,360,124.14,124.14,0,0,1,360,484Z"/><path d="M417.689,412h-4V368a44.049,44.049,0,0,0-44-44h-16a44.049,44.049,0,0,0-44,44v44h-4a12,12,0,0,0,0,24h112a12,12,0,1,0,0-24Zm-44,0V384a12,12,0,0,0-24,0v28h-16V368a20.023,20.023,0,0,1,20-20h16a20.023,20.023,0,0,1,20,20v44Z"/><path d="M361.689,308a12,12,0,0,0,12-12V280a12,12,0,0,0-24,0v16A12,12,0,0,0,361.689,308Z"/><path d="M301.956,315.9a12,12,0,1,0,20.571-12.362l-8.241-13.714a12,12,0,0,0-20.572,12.362Z"/><path d="M425.559,285.715a12,12,0,0,0-16.467,4.1l-8.241,13.714A12,12,0,1,0,421.422,315.9l8.241-13.714A12,12,0,0,0,425.559,285.715Z"/></g></g></svg>
